y
<svg width="25" height="25" viewBox="0 0 25 25" fill="none" xmlns="http://www.w3.org/2000/svg">
<g id="Library">
<path id="Combined Shape" fill-rule="evenodd" clip-rule="evenodd" d="M2.59406 8.5C1.48949 8.5 0.594055 9.39543 0.594055 10.5V22.5C0.594055 23.6046 1.48949 24.5 2.59405 24.5H22.5941C23.6986 24.5 24.5941 23.6046 24.5941 22.5V10.5C24.5941 9.39543 23.6986 8.5 22.5941 8.5H2.59406ZM10.0941 14.0002C10.0941 13.2323 10.9235 12.751 11.5902 13.1319L15.5746 15.4087C16.2464 15.7926 16.2464 16.7613 15.5746 17.1452L11.5902 19.4221C10.9235 19.803 10.0941 19.3216 10.0941 18.5538V14.0002Z" fill="white"/>
<rect id="Rectangle" x="1.59406" y="4.5" width="22" height="2" rx="1" fill="white"/>
<rect id="Rectangle Copy" x="2.59406" y="0.5" width="20" height="2" rx="1" fill="white"/>
</g>
</svg>
