<svg width="71" height="71" viewBox="0 0 71 71" fill="none" xmlns="http://www.w3.org/2000/svg">
<g id="Play">
<path id="Play_2" fill-rule="evenodd" clip-rule="evenodd" d="M0.0495033 35.5205C0.0495033 15.9722 15.8701 0.0833435 35.297 0.0833435C54.724 0.0833435 70.5445 15.9722 70.5445 35.5205C70.5445 55.0279 54.724 70.9167 35.297 70.9167C15.8701 70.9167 0.0495033 55.0279 0.0495033 35.5205ZM48.2257 39.1049C48.5999 38.729 49.0762 38.1481 49.1783 38.0115C49.7227 37.2939 49.9948 36.4055 49.9948 35.5205C49.9948 34.5262 49.6886 33.6036 49.1102 32.8519C49.0628 32.8043 48.97 32.7028 48.8491 32.5705C48.6227 32.323 48.2979 31.9677 47.9875 31.6559C45.1976 28.649 37.9168 23.7286 34.1062 22.2252C33.5278 21.9894 32.0649 21.4734 31.2823 21.4393C30.5338 21.4393 29.8194 21.6101 29.1389 21.9518C28.2883 22.4302 27.6079 23.1819 27.2336 24.0703C26.9955 24.6854 26.6212 26.5305 26.6212 26.5647C26.247 28.5807 26.0429 31.861 26.0429 35.4829C26.0429 38.9375 26.247 42.0776 26.5532 44.1278C26.5616 44.1363 26.5909 44.2829 26.6363 44.5107C26.7746 45.2032 27.0625 46.6459 27.3697 47.2372C28.1182 48.6723 29.5812 49.5607 31.1463 49.5607H31.2823C32.303 49.5266 34.4465 48.6382 34.4465 48.604C38.0529 47.1005 45.1636 42.4193 48.0215 39.3099L48.2257 39.1049Z" fill="white"/>
</g>
</svg>
