<svg width="22" height="19" viewBox="0 0 22 19" fill="none" xmlns="http://www.w3.org/2000/svg">
<g id="volumeSetting">
<path id="Path" d="M10.4188 0.62946C11.0806 0.156696 12 0.62982 12 1.44319V17.5568C12 18.3702 11.0806 18.8433 10.4188 18.3705L5 14.5H2C0.89543 14.5 0 13.6046 0 12.5V6.5C0 5.39543 0.895431 4.5 2 4.5H5L10.4188 0.62946Z" fill="white"/>
<path id="Path_2" d="M14.9938 14.4053C16.2346 13.1422 17 11.4105 17 9.49999C17 7.58146 16.2282 5.8432 14.9781 4.57877" stroke="white" stroke-width="2" stroke-linecap="round" stroke-linejoin="round"/>
<path id="Path_3" d="M17.7782 1.72183C19.7688 3.71244 21 6.46244 21 9.50001C21 12.5376 19.7688 15.2876 17.7782 17.2782" stroke="white" stroke-width="2" stroke-linecap="round" stroke-linejoin="round"/>
</g>
</svg>
