<svg width="40" height="40" viewBox="0 0 40 40" fill="none" xmlns="http://www.w3.org/2000/svg">
<rect width="40" height="40" rx="12" fill="#FFDD72"/>
<path d="M32.0341 14.427L31.7064 12.6361C31.6615 12.3903 31.4475 12.2121 31.1982 12.2121C31.1972 12.2121 31.1966 12.2121 31.1956 12.2121C30.945 12.2131 30.7318 12.3937 30.6889 12.6405L27.7414 29.622L12.7198 29.6225C12.3598 29.6225 12.0268 29.4737 11.781 29.2037C11.4994 28.8933 11.3425 28.4306 11.3803 28.0339C11.4903 27.0781 12.1813 26.3841 13.0221 26.3841H25.5583C25.8102 26.3841 26.0257 26.2025 26.0675 25.9536L29.0024 8.60309C29.0277 8.45296 28.9858 8.29948 28.8874 8.1832C28.7895 8.06692 28.645 8 28.4931 8H15.9667C13.1092 8 10.3196 10.324 9.74774 13.1787L7.07131 26.2836C6.83049 27.8179 7.20413 29.2603 8.12349 30.3458C9.02631 31.4116 10.3501 31.9987 11.8511 31.9987L12.0903 31.9979C12.095 31.9979 12.0994 31.9982 12.1045 31.9982C12.904 31.999 28.1933 32 28.3528 32C28.9313 32 29.4243 31.5855 29.5266 31.0034L32.0364 14.5975C32.0455 14.5412 32.0442 14.4831 32.0341 14.427Z" fill="#200745"/>
</svg>
