<svg width="24" height="24" viewBox="0 0 24 24" fill="none" xmlns="http://www.w3.org/2000/svg">
<path d="M23.8003 7.08526L17.1428 0.171574C16.9724 -0.00599342 16.724 -0.051817 16.5146 0.0627428C16.3051 0.171575 16.1688 0.417878 16.1688 0.687093V4.31864H10.3149C9.99346 4.31864 9.73047 4.62795 9.73047 5.006V10.1956C9.73047 10.5736 9.99346 10.8829 10.3149 10.8829H16.1737V14.5145C16.1737 14.7837 16.31 15.03 16.5194 15.1388C16.5974 15.1789 16.6801 15.2018 16.7581 15.2018C16.8993 15.2018 17.0357 15.1445 17.1428 15.03L23.8003 8.11629C23.9269 7.98455 24 7.79553 24 7.60077C24 7.40602 23.9269 7.217 23.8003 7.08526Z" fill="white"/>
<path d="M13.6851 13.1168H7.8263V9.48529C7.8263 9.21607 7.68994 8.96977 7.48052 8.86094C7.2711 8.75211 7.0276 8.7922 6.85227 8.96977L0.199676 15.8835C0.0730522 16.0152 0 16.2042 0 16.399C0 16.5937 0.0730522 16.7827 0.199676 16.9145L6.85714 23.8282C6.96428 23.9427 7.10552 24 7.24188 24C7.32467 24 7.40747 23.9828 7.48052 23.937C7.68994 23.8282 7.8263 23.5819 7.8263 23.3126V19.6811H13.6851C14.0065 19.6811 14.2695 19.3718 14.2695 18.9937V13.8042C14.2695 13.4261 14.0065 13.1168 13.6851 13.1168Z" fill="white"/>
</svg>
