<svg width="28" height="29" viewBox="0 0 28 29" fill="none" xmlns="http://www.w3.org/2000/svg">
<g id="Icon 32/Left">
<g id="Arrow - Left Square">
<path id="Combined Shape" fill-rule="evenodd" clip-rule="evenodd" d="M19.5837 15.5004C20.0718 15.4342 20.448 15.0158 20.448 14.5095C20.448 13.9573 20.0003 13.5095 19.448 13.5095L10.9726 13.5095L14.2759 10.2208L14.3729 10.1089C14.6642 9.718 14.6331 9.16239 14.2789 8.80661C13.8892 8.41525 13.256 8.4139 12.8647 8.8036L7.846 13.8009L7.8434 13.8039C7.81067 13.8368 7.78021 13.8719 7.75228 13.9091L7.74868 13.9132C7.45671 14.3053 7.48915 14.8628 7.846 15.2182L12.8647 20.2155L12.977 20.3121C13.3691 20.6017 13.9246 20.5683 14.2789 20.2125L14.3755 20.1001C14.6651 19.708 14.6316 19.1525 14.2759 18.7983L10.9744 15.5095L19.448 15.5095L19.5837 15.5004Z" fill="white"/>
<path id="Stroke 1" opacity="0.1" fill-rule="evenodd" clip-rule="evenodd" d="M27.3333 8.73094L27.3333 20.2896C27.3333 24.8278 24.0943 27.8429 19.4453 27.8429L8.55467 27.8429C3.91061 27.8429 0.666668 24.8188 0.666668 20.2896L0.666668 8.73094C0.666668 4.19256 3.906 1.17627 8.55467 1.17627L19.4453 1.17627C24.094 1.17627 27.3333 4.19256 27.3333 8.73094ZM25.3333 20.2896L25.3333 8.73094C25.3333 5.33027 23.02 3.17627 19.4453 3.17627L8.55467 3.17627C4.97995 3.17627 2.66667 5.33027 2.66667 8.73094L2.66667 20.2896C2.66667 23.6817 4.98504 25.8429 8.55467 25.8429L19.4453 25.8429C23.0204 25.8429 25.3333 23.6899 25.3333 20.2896Z" fill="white"/>
</g>
</g>
</svg>
