<svg width="21" height="20" viewBox="0 0 21 20" fill="none" xmlns="http://www.w3.org/2000/svg">
<g id="Search">
<path id="Search_2" fill-rule="evenodd" clip-rule="evenodd" d="M10.07 0C4.76173 0 0.458496 4.20819 0.458496 9.39926C0.458496 14.5903 4.76173 18.7985 10.07 18.7985C12.3404 18.7985 14.4269 18.0287 16.0715 16.7415L19.1955 19.7886L19.2787 19.8586C19.5687 20.0685 19.9799 20.0446 20.2424 19.7873C20.5311 19.5043 20.5305 19.0459 20.241 18.7636L17.1537 15.7523C18.7234 14.0794 19.6816 11.8487 19.6816 9.39926C19.6816 4.20819 15.3783 0 10.07 0ZM10.07 1.44774C14.5607 1.44774 18.2011 5.00776 18.2011 9.39926C18.2011 13.7908 14.5607 17.3508 10.07 17.3508C5.57935 17.3508 1.93893 13.7908 1.93893 9.39926C1.93893 5.00776 5.57935 1.44774 10.07 1.44774Z" fill="white"/>
</g>
</svg>
